<svg width="28" height="25" viewBox="0 0 28 25" fill="none" xmlns="http://www.w3.org/2000/svg">
<path d="M9.65625 23.1562C10.1913 23.1562 10.625 22.7225 10.625 22.1875C10.625 21.6525 10.1913 21.2188 9.65625 21.2188C9.12122 21.2188 8.6875 21.6525 8.6875 22.1875C8.6875 22.7225 9.12122 23.1562 9.65625 23.1562Z" stroke="#064B24" stroke-width="2" stroke-linecap="round" stroke-linejoin="round"/>
<path d="M23.2188 23.1562C23.7538 23.1562 24.1875 22.7225 24.1875 22.1875C24.1875 21.6525 23.7538 21.2188 23.2188 21.2188C22.6837 21.2188 22.25 21.6525 22.25 22.1875C22.25 22.7225 22.6837 23.1562 23.2188 23.1562Z" stroke="#064B24" stroke-width="2" stroke-linecap="round" stroke-linejoin="round"/>
<path d="M1.90625 1.84375H5.78125L8.6875 18.3125H24.1875" stroke="#064B24" stroke-width="2" stroke-linecap="round" stroke-linejoin="round"/>
<path d="M8.6875 14.4375H23.7903C23.9023 14.4376 24.0109 14.3988 24.0976 14.3278C24.1842 14.2569 24.2436 14.158 24.2656 14.0482L26.0094 5.32943C26.0234 5.25913 26.0217 5.18658 26.0043 5.11702C25.987 5.04745 25.9544 4.98262 25.9089 4.92718C25.8634 4.87175 25.8062 4.8271 25.7414 4.79646C25.6766 4.76582 25.6058 4.74995 25.5341 4.75H6.75" stroke="#064B24" stroke-width="2" stroke-linecap="round" stroke-linejoin="round"/>
</svg>
