<svg width="22" height="18" viewBox="0 0 22 18" fill="none" xmlns="http://www.w3.org/2000/svg">
<path d="M18.15 0.200195C19.0119 0.200195 19.8386 0.542605 20.4481 1.1521C21.0576 1.76159 21.4 2.58824 21.4 3.45019V13.8502C21.4 14.7121 21.0576 15.5388 20.4481 16.1483C19.8386 16.7578 19.0119 17.1002 18.15 17.1002H3.84997C2.98802 17.1002 2.16137 16.7578 1.55188 16.1483C0.942385 15.5388 0.599976 14.7121 0.599976 13.8502V3.45019C0.599976 2.58824 0.942385 1.76159 1.55188 1.1521C2.16137 0.542605 2.98802 0.200195 3.84997 0.200195H18.15ZM20.1 5.34949L11.3302 10.5105C11.2473 10.5592 11.1546 10.5889 11.0588 10.5974C10.9631 10.6059 10.8666 10.5931 10.7764 10.5599L10.6698 10.5105L1.89998 5.35209V13.8502C1.89998 14.3674 2.10542 14.8634 2.47112 15.2291C2.83681 15.5947 3.3328 15.8002 3.84997 15.8002H18.15C18.6671 15.8002 19.1631 15.5947 19.5288 15.2291C19.8945 14.8634 20.1 14.3674 20.1 13.8502V5.34949ZM18.15 1.5002H3.84997C3.3328 1.5002 2.83681 1.70564 2.47112 2.07134C2.10542 2.43703 1.89998 2.93302 1.89998 3.45019V3.84279L11 9.19619L20.1 3.8402V3.45019C20.1 2.93302 19.8945 2.43703 19.5288 2.07134C19.1631 1.70564 18.6671 1.5002 18.15 1.5002Z" fill="#B1B101"/>
</svg>
