<svg width="30" height="31" viewBox="0 0 30 31" fill="none" xmlns="http://www.w3.org/2000/svg">
<path d="M29.5238 15.5552C29.5238 7.37115 22.9156 0.738281 14.7619 0.738281C6.60826 0.738281 0 7.37115 0 15.5552C0 22.5006 4.76879 28.3347 11.1983 29.938V20.0813H8.15365V15.5552H11.1983V13.6047C11.1983 8.56345 13.4702 6.22516 18.4062 6.22516C19.3404 6.22516 20.955 6.41037 21.6181 6.59558V10.6934C21.2721 10.6587 20.6667 10.6355 19.9113 10.6355C17.4894 10.6355 16.5552 11.5558 16.5552 13.9461V15.5552H21.3759L20.5456 20.0813H16.5495V30.2621C23.8612 29.3765 29.5238 23.1315 29.5238 15.5552Z" fill="#B1B101"/>
</svg>
