<svg width="28" height="29" viewBox="0 0 28 29" fill="none" xmlns="http://www.w3.org/2000/svg">
<path d="M12.2316 11.8178C11.879 12.0535 11.5762 12.3564 11.3407 12.7092C11.1051 13.0619 10.9413 13.4576 10.8587 13.8737C10.6917 14.7139 10.8655 15.5861 11.3416 16.2982C11.8177 17.0104 12.5572 17.5043 13.3975 17.6712C14.2377 17.8381 15.1099 17.6644 15.822 17.1883C16.5342 16.7122 17.0281 15.9726 17.195 15.1324C17.3619 14.2921 17.1882 13.42 16.7121 12.7078C16.236 11.9956 15.4964 11.5018 14.6562 11.3349C13.8159 11.1679 12.9438 11.3417 12.2316 11.8178ZM20.8474 7.67637C20.5326 7.36152 20.1511 7.11328 19.7334 6.9498C18.6375 6.51992 16.2459 6.53809 14.7019 6.55625C14.4537 6.55625 14.2236 6.5623 14.0238 6.5623C13.824 6.5623 13.5879 6.5623 13.3336 6.55625C11.7896 6.53809 9.41013 6.51387 8.31423 6.9498C7.89646 7.11328 7.52107 7.36152 7.20017 7.67637C6.87927 7.99121 6.63708 8.37266 6.47361 8.79043C6.04373 9.88633 6.06794 12.284 6.08005 13.8279C6.08005 14.0762 6.08611 14.3062 6.08611 14.5C6.08611 14.6938 6.08611 14.9238 6.08005 15.1721C6.06794 16.716 6.04373 19.1137 6.47361 20.2096C6.63708 20.6273 6.88533 21.0027 7.20017 21.3236C7.51501 21.6445 7.89646 21.8867 8.31423 22.0502C9.41013 22.4801 11.8017 22.4619 13.3457 22.4438C13.5939 22.4438 13.824 22.4377 14.0238 22.4377C14.2236 22.4377 14.4597 22.4377 14.714 22.4438C16.258 22.4619 18.6375 22.4861 19.7334 22.0502C20.1511 21.8867 20.5265 21.6385 20.8474 21.3236C21.1683 21.0088 21.4105 20.6273 21.574 20.2096C22.0099 19.1197 21.9857 16.7342 21.9676 15.1842C21.9676 14.9299 21.9615 14.6937 21.9615 14.4939C21.9615 14.2941 21.9615 14.0641 21.9676 13.8037C21.9857 12.2598 22.0099 9.87422 21.574 8.77832C21.4105 8.36055 21.1623 7.98516 20.8474 7.66426V7.67637ZM16.7847 10.3707C17.8799 11.1029 18.6393 12.2403 18.8959 13.5324C19.1526 14.8246 18.8853 16.1658 18.1531 17.2609C17.7905 17.8032 17.3247 18.2687 16.7822 18.631C16.2397 18.9932 15.6312 19.2451 14.9914 19.3721C13.6992 19.6287 12.358 19.3615 11.2629 18.6293C10.1677 17.8979 9.40797 16.7613 9.15079 15.4697C8.8936 14.1781 9.16004 12.8372 9.89148 11.7421C10.6229 10.6469 11.7595 9.88719 13.0511 9.63001C14.3427 9.37282 15.6835 9.63926 16.7787 10.3707H16.7847ZM18.5527 10.292C18.365 10.1648 18.2136 9.9832 18.1228 9.77129C18.032 9.55937 18.0138 9.3293 18.0562 9.09922C18.0986 8.86914 18.2136 8.66934 18.3711 8.50586C18.5285 8.34238 18.7404 8.2334 18.9644 8.19102C19.1885 8.14863 19.4246 8.1668 19.6365 8.25762C19.8484 8.34844 20.0301 8.49375 20.1572 8.68145C20.2843 8.86914 20.351 9.09316 20.351 9.32324C20.351 9.47461 20.3207 9.62598 20.2662 9.76523C20.2117 9.90449 20.1209 10.0316 20.0179 10.1406C19.915 10.2496 19.7818 10.3344 19.6426 10.3949C19.5033 10.4555 19.3519 10.4857 19.2006 10.4857C18.9705 10.4857 18.7465 10.4191 18.5588 10.292H18.5527ZM27.5863 4.8125C27.5863 2.6752 25.8486 0.9375 23.7113 0.9375H4.3363C2.199 0.9375 0.461304 2.6752 0.461304 4.8125V24.1875C0.461304 26.3248 2.199 28.0625 4.3363 28.0625H23.7113C25.8486 28.0625 27.5863 26.3248 27.5863 24.1875V4.8125ZM22.0765 22.5527C20.9443 23.685 19.5699 24.0422 18.0199 24.1209C16.4215 24.2117 11.6261 24.2117 10.0277 24.1209C8.47771 24.0422 7.1033 23.685 5.97107 22.5527C4.83884 21.4205 4.48162 20.0461 4.40896 18.4961C4.31814 16.8977 4.31814 12.1023 4.40896 10.5039C4.48767 8.95391 4.83884 7.57949 5.97107 6.44727C7.1033 5.31504 8.48376 4.95781 10.0277 4.88516C11.6261 4.79434 16.4215 4.79434 18.0199 4.88516C19.5699 4.96387 20.9443 5.31504 22.0765 6.44727C23.2088 7.57949 23.566 8.95391 23.6386 10.5039C23.7295 12.0963 23.7295 16.8855 23.6386 18.49C23.5599 20.04 23.2088 21.4145 22.0765 22.5467V22.5527Z" fill="#B1B101"/>
</svg>
