<svg width="19" height="22" viewBox="0 0 19 22" fill="none" xmlns="http://www.w3.org/2000/svg">
<path fill-rule="evenodd" clip-rule="evenodd" d="M4.55212 9.41667C4.55212 8.1044 5.07342 6.84588 6.00134 5.91796C6.92925 4.99005 8.18777 4.46875 9.50004 4.46875C10.8123 4.46875 12.0708 4.99005 12.9987 5.91796C13.9267 6.84588 14.448 8.1044 14.448 9.41667C14.448 10.7289 13.9267 11.9875 12.9987 12.9154C12.0708 13.8433 10.8123 14.3646 9.50004 14.3646C8.18777 14.3646 6.92925 13.8433 6.00134 12.9154C5.07342 11.9875 4.55212 10.7289 4.55212 9.41667ZM9.50004 6.03125C8.60217 6.03125 7.74108 6.38793 7.10619 7.02282C6.4713 7.6577 6.11462 8.5188 6.11462 9.41667C6.11462 10.3145 6.4713 11.1756 7.10619 11.8105C7.74108 12.4454 8.60217 12.8021 9.50004 12.8021C10.3979 12.8021 11.259 12.4454 11.8939 11.8105C12.5288 11.1756 12.8855 10.3145 12.8855 9.41667C12.8855 8.5188 12.5288 7.6577 11.8939 7.02282C11.259 6.38793 10.3979 6.03125 9.50004 6.03125Z" fill="#B1B101"/>
<path fill-rule="evenodd" clip-rule="evenodd" d="M0.670871 8.22621C0.849388 6.0668 1.83317 4.05342 3.42702 2.58558C5.02086 1.11774 7.10827 0.302721 9.27504 0.302246H9.72504C11.8918 0.302721 13.9792 1.11774 15.5731 2.58558C17.1669 4.05342 18.1507 6.0668 18.3292 8.22621C18.5278 10.6318 17.7846 13.0204 16.2563 14.8887L11.2636 20.9939C11.0499 21.2552 10.7809 21.4657 10.4759 21.6103C10.1709 21.7549 9.83756 21.8299 9.50004 21.8299C9.16251 21.8299 8.8292 21.7549 8.52421 21.6103C8.21922 21.4657 7.95016 21.2552 7.7365 20.9939L2.74379 14.8887C1.21549 13.0204 0.472295 10.6318 0.670871 8.22621ZM9.27504 1.86475C7.50068 1.8655 5.79142 2.53313 4.4863 3.73521C3.18117 4.9373 2.37554 6.58602 2.2292 8.35433C2.06387 10.3563 2.68233 12.3443 3.9542 13.8991L8.94691 20.0054C9.01403 20.0875 9.09857 20.1537 9.19441 20.1992C9.29025 20.2446 9.395 20.2682 9.50108 20.2682C9.60716 20.2682 9.71191 20.2446 9.80775 20.1992C9.90359 20.1537 9.98813 20.0875 10.0552 20.0054L15.048 13.8991C16.3191 12.344 16.9368 10.356 16.7709 8.35433C16.6245 6.58584 15.8187 4.93697 14.5134 3.73486C13.2081 2.53275 11.4985 1.86523 9.724 1.86475H9.27504Z" fill="#B1B101"/>
</svg>
