<svg width="57" height="57" viewBox="0 0 57 57" fill="none" xmlns="http://www.w3.org/2000/svg">
<path d="M56.8774 22.0424C55.6516 8.69271 43.8839 -1.11774 30.7065 0.124087C19.2452 1.24173 10.1742 10.4313 9.07097 22.1045L7.6613 20.7385C7.29355 20.3659 6.74194 20.3659 6.3742 20.7385C6.00646 21.111 6.00646 21.6698 6.3742 22.0424L9.19355 24.8986C9.25484 24.9607 9.37743 25.0849 9.50001 25.0849C9.74517 25.147 9.92904 25.147 10.1742 25.0849C10.2968 25.0228 10.3581 24.9607 10.4807 24.8986L13.3 22.0424C13.6677 21.6698 13.6677 21.111 13.3613 20.7385C13.0548 20.3659 12.4419 20.3659 12.0742 20.6764C12.0742 20.6764 12.0129 20.6764 12.0129 20.7385L10.8484 21.9182C12.1968 9.56199 23.1677 0.620819 35.3032 1.92474C45.7839 3.04239 54.0581 11.5489 55.0387 22.1666L55.1613 24.2156C55.1613 36.6339 45.2323 46.6927 33.0355 46.6927C31.1355 46.6927 29.2355 46.4443 27.4581 45.9476L43.8839 29.3071C44.0677 29.1208 44.129 28.8724 44.129 28.6241C44.129 28.3757 44.0065 28.1274 43.8839 27.9411L28.6226 12.6045C28.2548 12.2319 27.7032 12.2319 27.3355 12.6045L0.245167 40.0489C-0.122575 40.4215 -0.122575 40.9803 0.245167 41.3528L15.4452 56.7515C15.8129 57.1241 16.3645 57.1241 16.7323 56.7515L25.8645 47.4999C38.5516 51.4738 51.9742 44.209 55.8968 31.4182C56.6323 29.0587 57 26.6372 57 24.2156L56.8774 22.0424ZM16.1194 54.7646L2.20646 40.6698L27.9484 14.5914L41.8613 28.6862L16.1194 54.7646Z" fill="#B1B101"/>
</svg>
