<svg width="193" height="193" viewBox="0 0 193 193" fill="none" xmlns="http://www.w3.org/2000/svg">
<circle cx="96.5" cy="96.5" r="96.5" fill="url(#paint0_radial_726_1862)"/>
<path d="M70.7284 122.037H49.3369C48.6546 122.037 48.1025 122.59 48.1025 123.271C48.1025 123.953 48.6546 124.506 49.3369 124.506H70.7284C71.4107 124.506 71.9628 123.953 71.9628 123.271C71.9628 122.59 71.4107 122.037 70.7284 122.037Z" fill="#B1B101"/>
<path d="M67.0579 132.735H53.0078C52.3255 132.735 51.7734 133.287 51.7734 133.969C51.7734 134.65 52.3255 135.203 53.0078 135.203H67.0577C67.74 135.203 68.292 134.65 68.292 133.969C68.292 133.287 67.7402 132.735 67.0579 132.735Z" fill="#B1B101"/>
<path d="M144.099 101.327C144.099 101.191 144.099 42.4694 144.099 42.4694C144.075 41.8027 143.482 41.2721 142.865 41.2721H57.3072C57.0109 41.2721 56.7269 41.3709 56.5049 41.5561L36.976 58.1464C36.7168 58.3687 36.5439 58.8008 36.5439 59.0847V144.667C36.5439 145.346 37.0872 145.902 37.7783 145.902H120.398C124.842 149.543 130.52 151.728 136.693 151.728C150.901 151.728 162.455 140.174 162.455 125.966C162.455 114.35 154.703 104.511 144.099 101.327ZM106.684 43.7408H139.507L122.88 57.8501H91.2415L106.684 43.7408ZM141.631 45.1726V100.709C140.038 100.401 138.384 100.228 136.693 100.228C132.311 100.228 128.188 101.326 124.571 103.264V59.6647C130.521 54.6037 138.187 48.0983 141.631 45.1726ZM57.7639 43.7408H82.4155L66.9852 57.8501H41.136L57.7639 43.7408ZM39.0128 143.433V60.319H66.2318V83.1928C66.2318 83.6249 66.4541 84.02 66.8121 84.2422C67.1825 84.4768 67.6266 84.4891 68.0217 84.304L77.7738 79.4279L87.5136 84.304C87.9086 84.5015 88.3654 84.4645 88.7108 84.2422C89.0812 84.02 89.3034 83.6249 89.3034 83.1928V60.319H122.102V104.783C115.375 109.437 110.943 117.189 110.943 125.966C110.943 132.706 113.572 138.841 117.819 143.433H39.0128ZM136.693 149.259C123.855 149.259 113.412 138.816 113.412 125.966C113.412 113.14 123.855 102.697 136.693 102.697C149.531 102.697 159.987 113.14 159.987 125.966C159.987 138.816 149.531 149.259 136.693 149.259Z" fill="#B1B101"/>
<path d="M149.877 123.682L137.422 136.137C135.261 138.31 131.731 138.322 129.558 136.137L123.522 130.101C121.349 127.928 121.349 124.398 123.522 122.238C125.695 120.053 129.213 120.065 131.385 122.238L133.496 124.336L142.014 115.819C144.186 113.634 147.704 113.646 149.877 115.819C152.062 117.991 152.062 121.509 149.877 123.682Z" fill="#B1B101"/>
<defs>
<radialGradient id="paint0_radial_726_1862" cx="0" cy="0" r="1" gradientUnits="userSpaceOnUse" gradientTransform="translate(96.5 -3.78027e-06) rotate(90) scale(193 111.548)">
<stop offset="0.644231" stop-color="#FFFFEF"/>
<stop offset="1" stop-color="#FFFFE2"/>
</radialGradient>
</defs>
</svg>
