<svg width="203" height="27" viewBox="0 0 203 27" fill="none" xmlns="http://www.w3.org/2000/svg">
<g clip-path="url(#clip0_33_29)">
<mask id="mask0_33_29" style="mask-type:luminance" maskUnits="userSpaceOnUse" x="0" y="0" width="43" height="27">
<path d="M42.75 0H0V27H42.75V0Z" fill="white"/>
</mask>
<g mask="url(#mask0_33_29)">
<path opacity="0.07" d="M39.375 0H3.375C1.4625 0 0 1.4625 0 3.375V23.625C0 25.5375 1.575 27 3.375 27H39.375C41.2875 27 42.75 25.5375 42.75 23.625V3.375C42.75 1.4625 41.175 0 39.375 0Z" fill="black"/>
<path d="M39.375 1.125C40.6125 1.125 41.625 2.1375 41.625 3.375V23.625C41.625 24.8625 40.6125 25.875 39.375 25.875H3.375C2.1375 25.875 1.125 24.8625 1.125 23.625V3.375C1.125 2.1375 2.1375 1.125 3.375 1.125H39.375Z" fill="white"/>
<path d="M31.8375 11.3625H31.5C31.05 12.4875 30.7125 13.05 30.375 14.7375H32.5125C32.175 13.05 32.175 12.2625 31.8375 11.3625ZM35.1 18H33.1875C33.075 18 33.075 18 32.9625 17.8875L32.7375 16.875L32.625 16.65H29.925C29.8125 16.65 29.7 16.65 29.7 16.875L29.3625 17.8875C29.3625 18 29.25 18 29.25 18H26.8875L27.1125 17.4375L30.375 9.7875C30.375 9.225 30.7125 9 31.275 9H32.9625C33.075 9 33.1875 9 33.1875 9.225L34.7625 16.5375C34.875 16.9875 34.9875 17.325 34.9875 17.775C35.1 17.8875 35.1 17.8875 35.1 18ZM20.025 17.6625L20.475 15.6375C20.5875 15.6375 20.7 15.75 20.7 15.75C21.4875 16.0875 22.275 16.3125 23.0625 16.2C23.2875 16.2 23.625 16.0875 23.85 15.975C24.4125 15.75 24.4125 15.1875 23.9625 14.7375C23.7375 14.5125 23.4 14.4 23.0625 14.175C22.6125 13.95 22.1625 13.725 21.825 13.3875C20.475 12.2625 20.925 10.6875 21.7125 9.9C22.3875 9.45 22.725 9 23.625 9C24.975 9 26.4375 9 27.1125 9.225H27.225C27.1125 9.9 27 10.4625 26.775 11.1375C26.2125 10.9125 25.65 10.6875 25.0875 10.6875C24.75 10.6875 24.4125 10.6875 24.075 10.8C23.85 10.8 23.7375 10.9125 23.625 11.025C23.4 11.25 23.4 11.5875 23.625 11.8125L24.1875 12.2625C24.6375 12.4875 25.0875 12.7125 25.425 12.9375C25.9875 13.275 26.55 13.8375 26.6625 14.5125C26.8875 15.525 26.55 16.425 25.65 17.1C25.0875 17.55 24.8625 17.775 24.075 17.775C22.5 17.775 21.2625 17.8875 20.25 17.55C20.1375 17.775 20.1375 17.775 20.025 17.6625ZM16.0875 18C16.2 17.2125 16.2 17.2125 16.3125 16.875C16.875 14.4 17.4375 11.8125 17.8875 9.3375C18 9.1125 18 9 18.225 9H20.25C20.025 10.35 19.8 11.3625 19.4625 12.6C19.125 14.2875 18.7875 15.975 18.3375 17.6625C18.3375 17.8875 18.225 17.8875 18 17.8875M5.625 9.225C5.625 9.1125 5.85 9 5.9625 9H9.7875C10.35 9 10.8 9.3375 10.9125 9.9L11.925 14.85C11.925 14.9625 11.925 14.9625 12.0375 15.075C12.0375 14.9625 12.15 14.9625 12.15 14.9625L14.5125 9.225C14.4 9.1125 14.5125 9 14.625 9H16.9875C16.9875 9.1125 16.9875 9.1125 16.875 9.225L13.3875 17.4375C13.275 17.6625 13.275 17.775 13.1625 17.8875C13.05 18 12.825 17.8875 12.6 17.8875H10.9125C10.8 17.8875 10.6875 17.8875 10.6875 17.6625L8.8875 10.6875C8.6625 10.4625 8.325 10.125 7.875 10.0125C7.2 9.675 5.9625 9.45 5.7375 9.45L5.625 9.225Z" fill="#142688"/>
</g>
<mask id="mask1_33_29" style="mask-type:luminance" maskUnits="userSpaceOnUse" x="52" y="0" width="44" height="27">
<path d="M95.5 0H52.75V27H95.5V0Z" fill="white"/>
</mask>
<g mask="url(#mask1_33_29)">
<path opacity="0.07" d="M92.125 0H56.125C54.2125 0 52.75 1.4625 52.75 3.375V23.625C52.75 25.5375 54.325 27 56.125 27H92.125C94.0375 27 95.5 25.5375 95.5 23.625V3.375C95.5 1.4625 93.925 0 92.125 0Z" fill="black"/>
<path d="M92.125 1.125C93.3625 1.125 94.375 2.1375 94.375 3.375V23.625C94.375 24.8625 93.3625 25.875 92.125 25.875H56.125C54.8875 25.875 53.875 24.8625 53.875 23.625V3.375C53.875 2.1375 54.8875 1.125 56.125 1.125H92.125Z" fill="white"/>
<path d="M69.625 21.375C73.9742 21.375 77.5 17.8492 77.5 13.5C77.5 9.15076 73.9742 5.625 69.625 5.625C65.2758 5.625 61.75 9.15076 61.75 13.5C61.75 17.8492 65.2758 21.375 69.625 21.375Z" fill="#EB001B"/>
<path d="M78.625 21.375C82.9742 21.375 86.5 17.8492 86.5 13.5C86.5 9.15076 82.9742 5.625 78.625 5.625C74.2758 5.625 70.75 9.15076 70.75 13.5C70.75 17.8492 74.2758 21.375 78.625 21.375Z" fill="#F79E1B"/>
<path d="M77.5 13.4998C77.5 10.7998 76.15 8.43728 74.125 7.08728C72.1 8.54978 70.75 10.9123 70.75 13.4998C70.75 16.0873 72.1 18.5623 74.125 19.9123C76.15 18.5623 77.5 16.1998 77.5 13.4998Z" fill="#FF5F00"/>
</g>
<mask id="mask2_33_29" style="mask-type:luminance" maskUnits="userSpaceOnUse" x="105" y="0" width="45" height="27">
<path d="M149.375 0H105.5V27H149.375V0Z" fill="white"/>
</mask>
<g mask="url(#mask2_33_29)">
<path opacity="0.07" d="M145.911 0H108.964C107.001 0 105.5 1.4625 105.5 3.375V23.625C105.5 25.5375 107.117 27 108.964 27H145.911C147.874 27 149.375 25.5375 149.375 23.625V3.375C149.375 1.4625 147.758 0 145.911 0Z" fill="black"/>
<path d="M145.911 1.125C147.181 1.125 148.221 2.1375 148.221 3.375V23.625C148.221 24.8625 147.181 25.875 145.911 25.875H108.964C107.694 25.875 106.654 24.8625 106.654 23.625V3.375C106.654 2.1375 107.694 1.125 108.964 1.125H145.911Z" fill="white"/>
<path d="M109.622 8.05504H107.81V14.2425H109.622C110.581 14.2425 111.274 14.0175 111.886 13.5337C112.612 12.9487 113.04 12.0712 113.04 11.16C113.029 9.32629 111.631 8.05504 109.622 8.05504ZM111.077 12.7125C110.684 13.05 110.188 13.2075 109.379 13.2075H109.045V9.11254H109.379C110.177 9.11254 110.662 9.24754 111.077 9.60754C111.504 9.97879 111.758 10.5525 111.758 11.1488C111.758 11.745 111.504 12.3412 111.077 12.7125ZM113.606 8.05504H114.841V14.2425H113.606V8.05504ZM117.866 10.4288C117.127 10.1588 116.908 9.97879 116.908 9.65254C116.908 9.25879 117.3 8.96629 117.831 8.96629C118.2 8.96629 118.513 9.11254 118.824 9.47254L119.47 8.65129C118.939 8.20129 118.305 7.96504 117.601 7.96504C116.48 7.96504 115.615 8.73004 115.615 9.74254C115.615 10.5975 116.019 11.0363 117.173 11.4412C117.658 11.61 117.901 11.7225 118.028 11.79C118.27 11.9475 118.397 12.1725 118.397 12.4312C118.397 12.9375 117.993 13.3087 117.439 13.3087C116.85 13.3087 116.377 13.0162 116.087 12.4875L115.291 13.2412C115.857 14.0625 116.55 14.4225 117.485 14.4225C118.766 14.4225 119.678 13.59 119.678 12.3862C119.702 11.385 119.275 10.935 117.866 10.4288ZM120.082 11.16C120.082 12.9825 121.549 14.3887 123.431 14.3887C123.962 14.3887 124.424 14.2875 124.978 14.0287V12.6112C124.482 13.095 124.043 13.2862 123.489 13.2862C122.242 13.2862 121.352 12.4087 121.352 11.1488C121.352 9.95629 122.265 9.02254 123.431 9.02254C124.02 9.02254 124.47 9.22504 124.978 9.72004V8.30254C124.436 8.03254 123.985 7.92004 123.454 7.92004C121.595 7.92004 120.082 9.36004 120.082 11.16ZM134.815 12.2175L133.118 8.05504H131.768L134.458 14.4H135.127L137.864 8.05504H136.524L134.815 12.2175ZM138.43 14.2425H141.94V13.1962H139.665V11.5312H141.859V10.485H139.665V9.11254H141.94V8.05504H138.43V14.2425ZM146.846 9.88879C146.846 8.73004 146.027 8.06629 144.595 8.06629H142.759V14.2537H143.994V11.7675H144.156L145.865 14.2537H147.389L145.391 11.6437C146.327 11.4525 146.846 10.8338 146.846 9.88879ZM144.353 10.9125H143.994V9.03379H144.376C145.15 9.03379 145.565 9.34879 145.565 9.95629C145.565 10.575 145.149 10.9125 144.353 10.9125Z" fill="#231F20"/>
<path d="M128.777 14.4675C129.674 14.4675 130.535 14.1201 131.17 13.5018C131.805 12.8834 132.161 12.0447 132.161 11.1702C132.161 10.2957 131.805 9.45696 131.17 8.83858C130.535 8.2202 129.674 7.8728 128.777 7.8728C127.88 7.8728 127.019 8.2202 126.383 8.83858C125.749 9.45696 125.392 10.2957 125.392 11.1702C125.392 12.0447 125.749 12.8834 126.383 13.5018C127.019 14.1201 127.88 14.4675 128.777 14.4675Z" fill="url(#paint0_linear_33_29)"/>
<path opacity="0.65" d="M128.777 14.4675C129.674 14.4675 130.535 14.1201 131.17 13.5018C131.805 12.8834 132.161 12.0447 132.161 11.1702C132.161 10.2957 131.805 9.45696 131.17 8.83858C130.535 8.2202 129.674 7.8728 128.777 7.8728C127.88 7.8728 127.019 8.2202 126.383 8.83858C125.749 9.45696 125.392 10.2957 125.392 11.1702C125.392 12.0447 125.749 12.8834 126.383 13.5018C127.019 14.1201 127.88 14.4675 128.777 14.4675Z" fill="url(#paint1_linear_33_29)"/>
<path d="M147.723 8.4442C147.723 8.3317 147.644 8.27545 147.517 8.27545H147.331V8.81545H147.47V8.6017L147.631 8.81545H147.793L147.609 8.59045C147.677 8.5792 147.723 8.52295 147.723 8.4442ZM147.493 8.52295H147.47V8.3767H147.493C147.563 8.3767 147.596 8.3992 147.596 8.4442C147.596 8.50045 147.563 8.52295 147.493 8.52295Z" fill="#231F20"/>
<path d="M147.539 8.07275C147.273 8.07275 147.054 8.2865 147.054 8.54525C147.054 8.804 147.273 9.01775 147.539 9.01775C147.804 9.01775 148.024 8.804 148.024 8.54525C148.024 8.2865 147.804 8.07275 147.539 8.07275ZM147.539 8.939C147.331 8.939 147.146 8.77025 147.146 8.54525C147.146 8.3315 147.32 8.1515 147.539 8.1515C147.747 8.1515 147.92 8.3315 147.92 8.54525C147.92 8.759 147.747 8.939 147.539 8.939Z" fill="#231F20"/>
<path d="M148.221 14.6069C148.221 14.6069 136.778 22.357 115.863 25.8749H145.91C146.52 25.8749 147.104 25.6403 147.537 25.2223C147.969 24.8041 148.214 24.2364 148.22 23.6429L148.247 20.2454L148.221 14.6069Z" fill="#F48120"/>
</g>
<mask id="mask3_33_29" style="mask-type:luminance" maskUnits="userSpaceOnUse" x="159" y="0" width="44" height="27">
<path d="M202.125 0H159.375V27H202.125V0Z" fill="white"/>
</mask>
<g mask="url(#mask3_33_29)">
<path opacity="0.07" d="M198.75 0H162.75C160.837 0 159.375 1.4625 159.375 3.375V23.625C159.375 25.5375 160.95 27 162.75 27H198.75C200.662 27 202.125 25.5375 202.125 23.625V3.375C202.125 1.4625 200.55 0 198.75 0Z" fill="black"/>
<path d="M198.75 1.125C199.987 1.125 201 2.1375 201 3.375V23.625C201 24.8625 199.987 25.875 198.75 25.875H162.75C161.512 25.875 160.5 24.8625 160.5 23.625V3.375C160.5 2.1375 161.512 1.125 162.75 1.125H198.75Z" fill="#006FCF"/>
<path d="M184.138 22.4281V12.9545L201 12.9691V15.5858L199.052 17.6693L201 19.7697V22.4416H197.888L196.235 20.6168L194.592 22.4483L184.138 22.4258V22.4281Z" fill="white"/>
<path d="M185.265 21.3884V13.9971H191.533V15.6993H187.294V16.8558H191.432V18.5298H187.294V19.666H191.533V21.3884H185.265Z" fill="#006FCF"/>
<path d="M191.502 21.3884L194.97 17.6883L191.502 13.996H194.186L196.305 16.3394L198.432 13.9972H201V14.0545L197.606 17.6883L201 21.2849V21.3895H198.405L196.248 19.0237L194.113 21.3907H191.502V21.3884Z" fill="#006FCF"/>
<path d="M184.924 4.54504H188.99L190.417 7.78617V4.54504H195.435L196.301 6.97392L197.168 4.54504H201V14.0186H180.75L184.924 4.54504Z" fill="white"/>
<path d="M185.694 5.57446L182.414 12.9612H184.664L185.283 11.4819H188.635L189.254 12.9612H191.56L188.293 5.57446H185.694ZM185.976 9.82359L186.96 7.47234L187.942 9.82359H185.976Z" fill="#006FCF"/>
<path d="M191.529 12.9601V5.57227L194.691 5.58352L196.32 10.1251L197.958 5.57339H201V12.959L199.043 12.977V7.90328L197.193 12.959H195.404L193.519 7.8864V12.9601H191.53H191.529Z" fill="#006FCF"/>
</g>
</g>
<defs>
<linearGradient id="paint0_linear_33_29" x1="130.505" y1="13.8094" x2="128.252" y2="10.189" gradientUnits="userSpaceOnUse">
<stop stop-color="#F89F20"/>
<stop offset="0.25" stop-color="#F79A20"/>
<stop offset="0.533" stop-color="#F68D20"/>
<stop offset="0.62" stop-color="#F58720"/>
<stop offset="0.723" stop-color="#F48120"/>
<stop offset="1" stop-color="#F37521"/>
</linearGradient>
<linearGradient id="paint1_linear_33_29" x1="130.138" y1="13.761" x2="126.858" y2="7.18272" gradientUnits="userSpaceOnUse">
<stop stop-color="#F58720"/>
<stop offset="0.359" stop-color="#E16F27"/>
<stop offset="0.703" stop-color="#D4602C"/>
<stop offset="0.982" stop-color="#D05B2E"/>
</linearGradient>
<clipPath id="clip0_33_29">
<rect width="202.125" height="27" fill="white"/>
</clipPath>
</defs>
</svg>
