<svg width="243" height="27" viewBox="0 0 243 27" fill="none" xmlns="http://www.w3.org/2000/svg">
<g clip-path="url(#clip0_569_1324)">
<mask id="mask0_569_1324" style="mask-type:luminance" maskUnits="userSpaceOnUse" x="0" y="0" width="43" height="27">
<path d="M42.75 0H0V27H42.75V0Z" fill="white"/>
</mask>
<g mask="url(#mask0_569_1324)">
<path opacity="0.07" d="M39.375 0H3.375C1.4625 0 0 1.4625 0 3.375V23.625C0 25.5375 1.575 27 3.375 27H39.375C41.2875 27 42.75 25.5375 42.75 23.625V3.375C42.75 1.4625 41.175 0 39.375 0Z" fill="black"/>
<path d="M39.375 1.125C40.6125 1.125 41.625 2.1375 41.625 3.375V23.625C41.625 24.8625 40.6125 25.875 39.375 25.875H3.375C2.1375 25.875 1.125 24.8625 1.125 23.625V3.375C1.125 2.1375 2.1375 1.125 3.375 1.125H39.375Z" fill="white"/>
<path d="M31.8375 11.3625H31.5C31.05 12.4875 30.7125 13.05 30.375 14.7375H32.5125C32.175 13.05 32.175 12.2625 31.8375 11.3625ZM35.1 18H33.1875C33.075 18 33.075 18 32.9625 17.8875L32.7375 16.875L32.625 16.65H29.925C29.8125 16.65 29.7 16.65 29.7 16.875L29.3625 17.8875C29.3625 18 29.25 18 29.25 18H26.8875L27.1125 17.4375L30.375 9.7875C30.375 9.225 30.7125 9 31.275 9H32.9625C33.075 9 33.1875 9 33.1875 9.225L34.7625 16.5375C34.875 16.9875 34.9875 17.325 34.9875 17.775C35.1 17.8875 35.1 17.8875 35.1 18ZM20.025 17.6625L20.475 15.6375C20.5875 15.6375 20.7 15.75 20.7 15.75C21.4875 16.0875 22.275 16.3125 23.0625 16.2C23.2875 16.2 23.625 16.0875 23.85 15.975C24.4125 15.75 24.4125 15.1875 23.9625 14.7375C23.7375 14.5125 23.4 14.4 23.0625 14.175C22.6125 13.95 22.1625 13.725 21.825 13.3875C20.475 12.2625 20.925 10.6875 21.7125 9.9C22.3875 9.45 22.725 9 23.625 9C24.975 9 26.4375 9 27.1125 9.225H27.225C27.1125 9.9 27 10.4625 26.775 11.1375C26.2125 10.9125 25.65 10.6875 25.0875 10.6875C24.75 10.6875 24.4125 10.6875 24.075 10.8C23.85 10.8 23.7375 10.9125 23.625 11.025C23.4 11.25 23.4 11.5875 23.625 11.8125L24.1875 12.2625C24.6375 12.4875 25.0875 12.7125 25.425 12.9375C25.9875 13.275 26.55 13.8375 26.6625 14.5125C26.8875 15.525 26.55 16.425 25.65 17.1C25.0875 17.55 24.8625 17.775 24.075 17.775C22.5 17.775 21.2625 17.8875 20.25 17.55C20.1375 17.775 20.1375 17.775 20.025 17.6625ZM16.0875 18C16.2 17.2125 16.2 17.2125 16.3125 16.875C16.875 14.4 17.4375 11.8125 17.8875 9.3375C18 9.1125 18 9 18.225 9H20.25C20.025 10.35 19.8 11.3625 19.4625 12.6C19.125 14.2875 18.7875 15.975 18.3375 17.6625C18.3375 17.8875 18.225 17.8875 18 17.8875M5.625 9.225C5.625 9.1125 5.85 9 5.9625 9H9.7875C10.35 9 10.8 9.3375 10.9125 9.9L11.925 14.85C11.925 14.9625 11.925 14.9625 12.0375 15.075C12.0375 14.9625 12.15 14.9625 12.15 14.9625L14.5125 9.225C14.4 9.1125 14.5125 9 14.625 9H16.9875C16.9875 9.1125 16.9875 9.1125 16.875 9.225L13.3875 17.4375C13.275 17.6625 13.275 17.775 13.1625 17.8875C13.05 18 12.825 17.8875 12.6 17.8875H10.9125C10.8 17.8875 10.6875 17.8875 10.6875 17.6625L8.8875 10.6875C8.6625 10.4625 8.325 10.125 7.875 10.0125C7.2 9.675 5.9625 9.45 5.7375 9.45L5.625 9.225Z" fill="#142688"/>
</g>
<mask id="mask1_569_1324" style="mask-type:luminance" maskUnits="userSpaceOnUse" x="65" y="0" width="43" height="27">
<path d="M108 0H65.25V27H108V0Z" fill="white"/>
</mask>
<g mask="url(#mask1_569_1324)">
<path opacity="0.07" d="M104.625 0H68.625C66.7125 0 65.25 1.4625 65.25 3.375V23.625C65.25 25.5375 66.825 27 68.625 27H104.625C106.537 27 108 25.5375 108 23.625V3.375C108 1.4625 106.425 0 104.625 0Z" fill="black"/>
<path d="M104.625 1.125C105.862 1.125 106.875 2.1375 106.875 3.375V23.625C106.875 24.8625 105.862 25.875 104.625 25.875H68.625C67.3875 25.875 66.375 24.8625 66.375 23.625V3.375C66.375 2.1375 67.3875 1.125 68.625 1.125H104.625Z" fill="white"/>
<path d="M82.125 21.375C86.4742 21.375 90 17.8492 90 13.5C90 9.15076 86.4742 5.625 82.125 5.625C77.7758 5.625 74.25 9.15076 74.25 13.5C74.25 17.8492 77.7758 21.375 82.125 21.375Z" fill="#EB001B"/>
<path d="M91.125 21.375C95.4742 21.375 99 17.8492 99 13.5C99 9.15076 95.4742 5.625 91.125 5.625C86.7758 5.625 83.25 9.15076 83.25 13.5C83.25 17.8492 86.7758 21.375 91.125 21.375Z" fill="#F79E1B"/>
<path d="M90 13.4999C90 10.7999 88.65 8.4374 86.625 7.0874C84.6 8.5499 83.25 10.9124 83.25 13.4999C83.25 16.0874 84.6 18.5624 86.625 19.9124C88.65 18.5624 90 16.1999 90 13.4999Z" fill="#FF5F00"/>
</g>
<mask id="mask2_569_1324" style="mask-type:luminance" maskUnits="userSpaceOnUse" x="200" y="0" width="43" height="27">
<path d="M243 0H200.25V27H243V0Z" fill="white"/>
</mask>
<g mask="url(#mask2_569_1324)">
<path opacity="0.07" d="M239.625 0H203.625C201.712 0 200.25 1.4625 200.25 3.375V23.625C200.25 25.5375 201.825 27 203.625 27H239.625C241.537 27 243 25.5375 243 23.625V3.375C243 1.4625 241.425 0 239.625 0Z" fill="black"/>
<path d="M239.625 1.125C240.862 1.125 241.875 2.1375 241.875 3.375V23.625C241.875 24.8625 240.862 25.875 239.625 25.875H203.625C202.387 25.875 201.375 24.8625 201.375 23.625V3.375C201.375 2.1375 202.387 1.125 203.625 1.125H239.625Z" fill="#006FCF"/>
<path d="M225.013 22.4282V12.9546L241.875 12.9692V15.586L239.927 17.6695L241.875 19.7698V22.4417H238.763L237.11 20.617L235.467 22.4485L225.013 22.426V22.4282Z" fill="white"/>
<path d="M226.14 21.3883V13.9971H232.408V15.6992H228.169V16.8557H232.307V18.5297H228.169V19.6659H232.408V21.3883H226.14Z" fill="#006FCF"/>
<path d="M232.377 21.3885L235.845 17.6883L232.377 13.9961H235.061L237.18 16.3395L239.307 13.9972H241.875V14.0546L238.481 17.6883L241.875 21.285V21.3896H239.28L237.123 19.0237L234.988 21.3907H232.377V21.3885Z" fill="#006FCF"/>
<path d="M225.799 4.54492H229.865L231.292 7.78605V4.54492H236.31L237.176 6.9738L238.043 4.54492H241.875V14.0185H221.625L225.799 4.54492Z" fill="white"/>
<path d="M226.569 5.57471L223.289 12.9615H225.539L226.158 11.4821H229.51L230.129 12.9615H232.435L229.168 5.57471H226.569ZM226.851 9.82383L227.835 7.47258L228.817 9.82383H226.851Z" fill="#006FCF"/>
<path d="M232.404 12.9601V5.57227L235.566 5.58352L237.195 10.1251L238.833 5.57339H241.875V12.959L239.918 12.977V7.90328L238.068 12.959H236.279L234.394 7.8864V12.9601H232.405H232.404Z" fill="#006FCF"/>
</g>
<mask id="mask3_569_1324" style="mask-type:luminance" maskUnits="userSpaceOnUse" x="131" y="0" width="45" height="27">
<path d="M175.5 0H131.625V27H175.5V0Z" fill="white"/>
</mask>
<g mask="url(#mask3_569_1324)">
<path opacity="0.07" d="M172.036 0H135.089C133.126 0 131.625 1.4625 131.625 3.375V23.625C131.625 25.5375 133.242 27 135.089 27H172.036C173.999 27 175.5 25.5375 175.5 23.625V3.375C175.5 1.4625 173.883 0 172.036 0Z" fill="black"/>
<path d="M172.036 1.125C173.306 1.125 174.346 2.1375 174.346 3.375V23.625C174.346 24.8625 173.306 25.875 172.036 25.875H135.089C133.819 25.875 132.779 24.8625 132.779 23.625V3.375C132.779 2.1375 133.819 1.125 135.089 1.125H172.036Z" fill="white"/>
<path d="M135.747 8.05492H133.935V14.2424H135.747C136.706 14.2424 137.399 14.0174 138.011 13.5336C138.737 12.9486 139.165 12.0711 139.165 11.1599C139.154 9.32617 137.756 8.05492 135.747 8.05492ZM137.202 12.7124C136.809 13.0499 136.313 13.2074 135.504 13.2074H135.17V9.11242H135.504C136.302 9.11242 136.787 9.24742 137.202 9.60742C137.629 9.97867 137.883 10.5524 137.883 11.1487C137.883 11.7449 137.629 12.3411 137.202 12.7124ZM139.731 8.05492H140.966V14.2424H139.731V8.05492ZM143.991 10.4287C143.252 10.1587 143.033 9.97867 143.033 9.65242C143.033 9.25867 143.425 8.96617 143.956 8.96617C144.325 8.96617 144.638 9.11242 144.949 9.47242L145.595 8.65117C145.064 8.20117 144.43 7.96492 143.726 7.96492C142.605 7.96492 141.74 8.72992 141.74 9.74242C141.74 10.5974 142.144 11.0362 143.298 11.4411C143.783 11.6099 144.026 11.7224 144.153 11.7899C144.395 11.9474 144.522 12.1724 144.522 12.4311C144.522 12.9374 144.118 13.3086 143.564 13.3086C142.975 13.3086 142.502 13.0161 142.212 12.4874L141.416 13.2411C141.982 14.0624 142.675 14.4224 143.61 14.4224C144.891 14.4224 145.803 13.5899 145.803 12.3861C145.827 11.3849 145.4 10.9349 143.991 10.4287ZM146.207 11.1599C146.207 12.9824 147.674 14.3886 149.556 14.3886C150.087 14.3886 150.549 14.2874 151.103 14.0286V12.6111C150.607 13.0949 150.168 13.2861 149.614 13.2861C148.367 13.2861 147.477 12.4086 147.477 11.1487C147.477 9.95617 148.39 9.02242 149.556 9.02242C150.145 9.02242 150.595 9.22492 151.103 9.71992V8.30242C150.561 8.03242 150.11 7.91992 149.579 7.91992C147.72 7.91992 146.207 9.35992 146.207 11.1599ZM160.94 12.2174L159.243 8.05492H157.893L160.583 14.3999H161.252L163.989 8.05492H162.649L160.94 12.2174ZM164.555 14.2424H168.065V13.1961H165.79V11.5311H167.984V10.4849H165.79V9.11242H168.065V8.05492H164.555V14.2424ZM172.971 9.88867C172.971 8.72992 172.152 8.06617 170.72 8.06617H168.884V14.2536H170.119V11.7674H170.281L171.99 14.2536H173.514L171.516 11.6436C172.452 11.4524 172.971 10.8337 172.971 9.88867ZM170.478 10.9124H170.119V9.03367H170.501C171.275 9.03367 171.69 9.34867 171.69 9.95617C171.69 10.5749 171.274 10.9124 170.478 10.9124Z" fill="#231F20"/>
<path d="M154.902 14.4677C155.799 14.4677 156.66 14.1203 157.295 13.502C157.93 12.8836 158.286 12.0449 158.286 11.1704C158.286 10.2959 157.93 9.4572 157.295 8.83883C156.66 8.22045 155.799 7.87305 154.902 7.87305C154.005 7.87305 153.144 8.22045 152.508 8.83883C151.874 9.4572 151.517 10.2959 151.517 11.1704C151.517 12.0449 151.874 12.8836 152.508 13.502C153.144 14.1203 154.005 14.4677 154.902 14.4677Z" fill="url(#paint0_linear_569_1324)"/>
<path opacity="0.65" d="M154.902 14.4677C155.799 14.4677 156.66 14.1203 157.295 13.502C157.93 12.8836 158.286 12.0449 158.286 11.1704C158.286 10.2959 157.93 9.4572 157.295 8.83883C156.66 8.22045 155.799 7.87305 154.902 7.87305C154.005 7.87305 153.144 8.22045 152.508 8.83883C151.874 9.4572 151.517 10.2959 151.517 11.1704C151.517 12.0449 151.874 12.8836 152.508 13.502C153.144 14.1203 154.005 14.4677 154.902 14.4677Z" fill="url(#paint1_linear_569_1324)"/>
<path d="M173.848 8.44414C173.848 8.33164 173.769 8.27539 173.642 8.27539H173.456V8.81539H173.595V8.60164L173.756 8.81539H173.918L173.734 8.59039C173.802 8.57914 173.848 8.52289 173.848 8.44414ZM173.618 8.52289H173.595V8.37664H173.618C173.688 8.37664 173.721 8.39914 173.721 8.44414C173.721 8.50039 173.688 8.52289 173.618 8.52289Z" fill="#231F20"/>
<path d="M173.664 8.07275C173.399 8.07275 173.179 8.2865 173.179 8.54525C173.179 8.804 173.399 9.01775 173.664 9.01775C173.93 9.01775 174.149 8.804 174.149 8.54525C174.149 8.2865 173.93 8.07275 173.664 8.07275ZM173.664 8.939C173.456 8.939 173.271 8.77025 173.271 8.54525C173.271 8.3315 173.445 8.1515 173.664 8.1515C173.872 8.1515 174.045 8.3315 174.045 8.54525C174.045 8.759 173.872 8.939 173.664 8.939Z" fill="#231F20"/>
<path d="M174.346 14.6069C174.346 14.6069 162.903 22.3571 141.989 25.8749H172.035C172.645 25.8749 173.229 25.6404 173.662 25.2223C174.094 24.8042 174.339 24.2365 174.345 23.6429L174.372 20.2454L174.346 14.6069Z" fill="#F48120"/>
</g>
</g>
<defs>
<linearGradient id="paint0_linear_569_1324" x1="156.63" y1="13.8096" x2="154.377" y2="10.1892" gradientUnits="userSpaceOnUse">
<stop stop-color="#F89F20"/>
<stop offset="0.25" stop-color="#F79A20"/>
<stop offset="0.533" stop-color="#F68D20"/>
<stop offset="0.62" stop-color="#F58720"/>
<stop offset="0.723" stop-color="#F48120"/>
<stop offset="1" stop-color="#F37521"/>
</linearGradient>
<linearGradient id="paint1_linear_569_1324" x1="156.263" y1="13.7612" x2="152.983" y2="7.18296" gradientUnits="userSpaceOnUse">
<stop stop-color="#F58720"/>
<stop offset="0.359" stop-color="#E16F27"/>
<stop offset="0.703" stop-color="#D4602C"/>
<stop offset="0.982" stop-color="#D05B2E"/>
</linearGradient>
<clipPath id="clip0_569_1324">
<rect width="243" height="27" fill="white"/>
</clipPath>
</defs>
</svg>
