<svg width="24" height="24" viewBox="0 0 24 24" fill="none" xmlns="http://www.w3.org/2000/svg">
<g clip-path="url(#clip0_767_1082)">
<path d="M23.6998 6.22498C23.9053 6.90748 24.0163 7.64698 24.0163 8.42998C24.0163 13.305 19.8013 18.075 12.9613 22.155C12.6868 22.3275 12.2908 22.5 12.0163 22.5C11.7568 22.5 11.3458 22.326 11.0713 22.155C9.63133 21.297 8.31133 20.4 7.11133 19.485L8.32033 18.5175C9.38383 19.314 10.5703 20.1075 11.8603 20.8725L11.9578 20.928L12.0028 20.952L12.1213 20.892L12.1843 20.8545C18.8893 16.8495 22.5043 12.4695 22.5043 8.41948C22.5033 8.01248 22.4668 7.62148 22.3948 7.24648L23.6863 6.21448L23.6998 6.22498Z" fill="#064B24"/>
<path fill-rule="evenodd" clip-rule="evenodd" d="M22.9501 1.57501C23.1039 1.49633 23.2802 1.47317 23.4492 1.50947C23.6181 1.54577 23.7693 1.63929 23.8773 1.77422C23.9852 1.90915 24.0433 2.07721 24.0416 2.25C24.0399 2.42279 23.9786 2.5897 23.8681 2.72251L23.7601 2.82901L1.2601 20.829C1.1043 20.9461 0.909077 20.9979 0.715752 20.9735C0.522427 20.9491 0.346183 20.8504 0.224338 20.6983C0.102493 20.5463 0.0446124 20.3528 0.0629526 20.1588C0.0812929 19.9648 0.174414 19.7855 0.322598 19.659L4.0126 16.704C1.4776 14.049 0.0375977 11.259 0.0375977 8.42401C0.0375977 4.37401 2.9926 1.49401 6.7876 1.49401C9.1876 1.49401 10.9426 2.74351 12.0376 4.59901C13.1506 2.72401 14.8876 1.49401 17.2876 1.49401C18.8326 1.49401 20.2426 1.97551 21.3676 2.81851L22.8211 1.65751L22.9501 1.57501ZM17.2801 2.99251C15.5701 2.99251 14.2501 3.80851 13.3201 5.36251L12.0271 7.53751L10.7416 5.36251C9.8266 3.81751 8.5066 2.99251 6.7816 2.99251C3.7666 2.99251 1.5316 5.24251 1.5316 8.42251C1.5316 10.8075 2.7826 13.2975 5.1766 15.7575L20.1466 3.78751C19.2874 3.25299 18.2934 2.97508 17.2816 2.98651L17.2801 2.99251Z" fill="#064B24"/>
</g>
<defs>
<clipPath id="clip0_767_1082">
<rect width="24" height="24" fill="white"/>
</clipPath>
</defs>
</svg>
