<svg width="49" height="49" viewBox="0 0 49 49" fill="none" xmlns="http://www.w3.org/2000/svg">
<g clip-path="url(#clip0_553_1424)">
<path d="M24.5 0.302246C18.9951 0.302246 13.6111 2.17755 9.31608 5.6862V0.907184C9.31608 0.544221 9.0741 0.302246 8.71114 0.302246C8.34818 0.302246 8.1062 0.604715 8.1062 0.907184V6.95657C8.1062 7.31953 8.34818 7.56151 8.71114 7.56151H14.7605C15.1235 7.56151 15.3655 7.31953 15.3655 6.95657C15.3655 6.5936 15.1235 6.35163 14.7605 6.35163H10.405C14.3976 3.20595 19.4185 1.51212 24.5 1.51212C37.2037 1.51212 47.4877 11.7961 47.4877 24.4998C47.4877 29.0973 46.1568 33.5739 43.5556 37.3245C43.3741 37.6269 43.4346 37.9899 43.7371 38.1714C43.8581 38.2319 43.979 38.2924 44.1 38.2924C44.2815 38.2924 44.463 38.1714 44.584 38.0504C47.3062 34.0578 48.6976 29.3998 48.6976 24.4998C48.6976 11.1306 37.8692 0.302246 24.5 0.302246Z" fill="#B1B101"/>
<path d="M44.0395 38.5951C43.858 38.5951 43.6765 38.5346 43.5556 38.4136C43.1321 38.1111 43.0111 37.5667 43.3136 37.1432C45.8543 33.3926 47.1852 28.9765 47.1852 24.4395C47.1852 11.9778 37.0222 1.81481 24.5 1.81481C19.7815 1.81481 15.1235 3.32716 11.3124 6.04938H14.7605C15.0025 6.04938 15.2445 6.17037 15.4259 6.29136C15.6074 6.47284 15.6679 6.71481 15.6679 6.95679C15.6679 7.44074 15.2445 7.8642 14.7605 7.8642H8.71112C8.22717 7.8642 7.80371 7.44074 7.80371 6.95679V0.907407C7.80371 0.665432 7.9247 0.423457 8.04569 0.241975C8.22717 0.120988 8.46914 0 8.71112 0C9.19507 0 9.61853 0.423457 9.61853 0.907407V5.02099C13.8531 1.81481 19.1161 0 24.5 0C37.9901 0 49 11.0099 49 24.5C49 29.4 47.5482 34.1185 44.8259 38.1716C44.6445 38.4741 44.342 38.5951 44.0395 38.5951ZM24.5 1.20988C37.3247 1.20988 47.7901 11.6753 47.7901 24.5C47.7901 29.158 46.3988 33.6951 43.7975 37.5062C43.6766 37.6272 43.737 37.8086 43.858 37.9296C43.979 37.9901 44.1605 37.9901 44.2815 37.8691C46.9432 33.937 48.3346 29.279 48.3346 24.5C48.3951 11.3123 37.6877 0.604938 24.5 0.604938C19.0556 0.604938 13.7321 2.48025 9.49754 5.9284L9.01359 6.35185V0.967901C9.01359 0.725926 8.65062 0.604938 8.46914 0.725926C8.40865 0.78642 8.40865 0.846914 8.40865 0.967901V7.01728C8.40865 7.19877 8.52964 7.31975 8.71112 7.31975H14.7605C14.942 7.31975 15.063 7.19877 15.063 7.01728C15.063 6.95679 15.0025 6.8358 15.0025 6.77531C14.942 6.71481 14.8815 6.71482 14.7605 6.71482H9.49754L10.163 6.17037C14.2766 2.9642 19.358 1.20988 24.5 1.20988Z" fill="#B1B101"/>
<path d="M5.26298 10.8286C4.96051 10.6472 4.59755 10.7077 4.41607 11.0101C1.69385 15.0027 0.30249 19.6607 0.30249 24.5607C0.30249 37.9299 11.1309 48.7583 24.5 48.7583C30.005 48.7583 35.3889 46.883 39.6235 43.4348V48.1533C39.6235 48.5163 39.8654 48.7583 40.2284 48.7583C40.5914 48.7583 40.8334 48.5163 40.8334 48.1533V42.104C40.8334 41.741 40.5914 41.499 40.2284 41.499H34.179C33.8161 41.499 33.5741 41.741 33.5741 42.104C33.5741 42.4669 33.8161 42.7089 34.179 42.7089H38.5951C34.542 45.8546 29.642 47.5484 24.5 47.5484C11.7963 47.5484 1.51237 37.2644 1.51237 24.5607C1.51237 19.9632 2.84323 15.4867 5.44447 11.7361C5.62595 11.3731 5.56545 11.0101 5.26298 10.8286Z" fill="#B1B101"/>
<path d="M40.2889 49.0001C39.8049 49.0001 39.3815 48.5766 39.3815 48.0927V43.9791C35.0864 47.2457 29.8839 49.0001 24.5 49.0001C11.0099 49.0001 0 37.9902 0 24.5001C0 19.6001 1.45185 14.8815 4.17407 10.8285C4.47654 10.405 5.02099 10.284 5.44444 10.5865C5.62593 10.7075 5.80741 10.9494 5.80741 11.1914C5.80741 11.4334 5.80741 11.6754 5.68642 11.8568C3.14568 15.547 1.81481 19.963 1.81481 24.5001C1.81481 37.0223 11.9778 47.1852 24.5 47.1852C29.2185 47.1852 33.8765 45.6729 37.6876 42.9507H34.179C33.6951 42.9507 33.2716 42.5272 33.2716 42.0433C33.2716 41.5593 33.6951 41.1359 34.179 41.1359H40.2284C40.7123 41.1359 41.1358 41.5593 41.1358 42.0433V48.0927C41.1358 48.3346 41.0148 48.5766 40.8938 48.7581C40.7123 48.8791 40.5309 49.0001 40.2889 49.0001ZM39.9259 42.7087V48.0927C39.9259 48.3346 40.2889 48.4556 40.4704 48.3346C40.5309 48.2741 40.5309 48.2136 40.5309 48.0927V42.0433C40.5309 41.8618 40.4099 41.7408 40.2284 41.7408H34.179C33.9975 41.7408 33.8765 41.8618 33.8765 42.0433C33.8765 42.2248 33.9975 42.3457 34.179 42.3457H39.442L38.7765 42.8902C34.7235 46.0359 29.642 47.7902 24.5 47.7902C11.6753 47.7902 1.20988 37.3248 1.20988 24.5001C1.20988 19.842 2.60123 15.305 5.20247 11.4939C5.26296 11.4334 5.26296 11.3729 5.26296 11.2519C5.26296 11.1309 5.20247 11.1309 5.14197 11.0704C5.02099 10.9494 4.83951 11.0099 4.71852 11.1309C1.9963 15.063 0.604938 19.721 0.604938 24.5001C0.604938 37.6877 11.3123 48.3951 24.5 48.3951C29.9444 48.3951 35.2679 46.5198 39.442 43.1322L39.9259 42.7087Z" fill="#B1B101"/>
<path d="M36.6593 37.2637C37.0223 37.2637 37.2642 37.0218 37.2642 36.6588V12.3403C37.2642 11.9773 37.0223 11.7354 36.6593 11.7354H12.3408C11.9778 11.7354 11.7358 11.9773 11.7358 12.3403V36.6588C11.7358 37.0218 11.9778 37.2637 12.3408 37.2637H36.6593ZM20.9914 12.9452H28.0087V23.5317H20.9914V12.9452ZM12.9457 12.9452H19.7815V24.1366C19.7815 24.4996 20.0235 24.7415 20.3865 24.7415H28.6136C28.9766 24.7415 29.2186 24.4996 29.2186 24.1366V12.9452H36.0544V36.0539H12.9457V12.9452Z" fill="#B1B101"/>
<path d="M36.6593 37.5664H12.3408C11.8568 37.5664 11.4333 37.143 11.4333 36.659V12.3405C11.4333 11.8566 11.8568 11.4331 12.3408 11.4331H36.6593C37.1432 11.4331 37.5667 11.8566 37.5667 12.3405V36.659C37.5667 37.143 37.1432 37.5664 36.6593 37.5664ZM12.3408 12.038C12.1593 12.038 12.0383 12.159 12.0383 12.3405V36.659C12.0383 36.8405 12.1593 36.9615 12.3408 36.9615H36.6593C36.8408 36.9615 36.9617 36.8405 36.9617 36.659V12.3405C36.9617 12.159 36.8408 12.038 36.6593 12.038H12.3408ZM36.3568 36.3566H12.6432V12.643H20.084V24.1368C20.084 24.3183 20.205 24.4393 20.3864 24.4393H28.6136C28.7951 24.4393 28.9161 24.3183 28.9161 24.1368V12.643H36.3568V36.3566ZM13.2482 35.7516H35.7519V13.2479H29.521V24.1368C29.521 24.6208 29.0975 25.0442 28.6136 25.0442H20.3864C19.9025 25.0442 19.479 24.6208 19.479 24.1368V13.2479H13.2482V35.7516ZM28.3111 23.8343H20.6889V12.643H28.3111V23.8343ZM21.2938 23.2294H27.7062V13.2479H21.2938V23.2294Z" fill="#B1B101"/>
</g>
<defs>
<clipPath id="clip0_553_1424">
<rect width="49" height="49" fill="white"/>
</clipPath>
</defs>
</svg>
