<svg width="68" height="47" viewBox="0 0 68 47" fill="none" xmlns="http://www.w3.org/2000/svg">
<path d="M66.66 24.8885L60.18 22.5945L54.66 9.07218C54.42 8.58924 54.06 8.34777 53.58 8.34777H42.06V1.70735C42.06 0.98294 41.58 0.5 40.86 0.5H6.42C5.7 0.5 5.22 0.98294 5.22 1.70735V5.81234H2.34C1.62 5.81234 1.14 6.29528 1.14 7.01969C1.14 7.7441 1.62 8.22704 2.34 8.22704H6.54H13.02C13.74 8.22704 14.22 7.7441 14.22 7.01969C14.22 6.29528 13.74 5.81234 13.02 5.81234H7.74V2.9147H39.66V22.353H7.62V18.9724H10.86C11.58 18.9724 12.06 18.4895 12.06 17.7651C12.06 17.0407 11.58 16.5577 10.86 16.5577H4.26C3.54 16.5577 3.06 17.0407 3.06 17.7651C3.06 18.4895 3.54 18.9724 4.26 18.9724H5.22V22.353H1.98C1.26 22.353 0.779999 22.836 0.779999 23.5604V39.0144C0.779999 39.7388 1.26 40.2218 1.98 40.2218H5.94C6.54 43.7231 9.54 46.3793 13.26 46.3793C16.86 46.3793 19.98 43.7231 20.58 40.2218H40.98H46.74C47.34 43.7231 50.34 46.3793 54.06 46.3793C57.78 46.3793 60.78 43.7231 61.38 40.2218H66.3C67.02 40.2218 67.5 39.7388 67.5 39.0144V25.9751C67.5 25.4921 67.14 25.0092 66.66 24.8885ZM52.74 10.7625L57.54 22.353H42.06V10.7625H52.74ZM3.18 24.7677H6.42H39.54V37.8071H20.34C19.74 34.3058 16.74 31.6496 13.02 31.6496C9.42 31.6496 6.3 34.3058 5.7 37.8071H3.18V24.7677ZM13.14 44.0853C10.38 44.0853 8.22 41.7913 8.22 39.1352C8.22 36.479 10.5 34.185 13.14 34.185C15.9 34.185 18.06 36.3583 18.06 39.1352C18.18 41.7913 15.9 44.0853 13.14 44.0853ZM53.94 44.0853C51.18 44.0853 49.02 41.9121 49.02 39.1352C49.02 36.3583 51.3 34.185 53.94 34.185C56.7 34.185 58.86 36.3583 58.86 39.1352C58.86 41.7913 56.58 44.0853 53.94 44.0853ZM65.1 37.8071H61.14C60.54 34.3058 57.54 31.6496 53.82 31.6496C50.1 31.6496 47.1 34.3058 46.5 37.8071H41.94V24.7677H59.1L65.1 26.8202V37.8071Z" fill="#B1B101"/>
<path d="M53.94 46.6209C50.34 46.6209 47.22 43.9647 46.62 40.4634H40.98H40.86H20.58C19.98 44.0854 16.86 46.6209 13.26 46.6209C9.66 46.6209 6.42 43.9647 5.82 40.3426H1.98C1.26 40.3426 0.660004 39.739 0.660004 39.0146V23.5605C0.660004 22.8361 1.26 22.2324 1.98 22.2324H5.1V19.0933H4.26C3.54 19.0933 2.94 18.4896 2.94 17.7652C2.94 17.0408 3.54 16.4371 4.26 16.4371H10.86C11.58 16.4371 12.18 17.0408 12.18 17.7652C12.18 18.4896 11.58 19.0933 10.86 19.0933H7.74V22.2324H39.42V3.03556H7.74V5.69173H12.9C13.62 5.69173 14.22 6.2954 14.22 7.01981C14.22 7.74422 13.62 8.3479 12.9 8.3479H2.34C1.5 8.3479 1.02 7.74422 1.02 7.01981C1.02 6.2954 1.5 5.69173 2.34 5.69173H5.1V1.70748C5.1 0.983069 5.7 0.379395 6.42 0.379395H40.74C41.46 0.379395 42.06 0.983069 42.06 1.70748V8.22716H53.46C53.94 8.22716 54.42 8.58937 54.66 9.07231L60.3 22.4739L66.78 24.6471C67.26 24.8886 67.62 25.3715 67.62 25.8545V38.8938C67.62 39.6182 67.02 40.2219 66.3 40.2219H61.26C60.66 43.9647 57.54 46.6209 53.94 46.6209ZM40.86 40.1012H46.74V40.2219C47.34 43.7232 50.34 46.3794 53.94 46.3794C57.54 46.3794 60.54 43.844 61.14 40.2219V40.1012H66.3C66.9 40.1012 67.38 39.6182 67.38 39.0146V25.9752C67.38 25.4923 67.14 25.1301 66.66 24.8886L60.06 22.5946L54.54 9.19304C54.42 8.83084 53.94 8.46863 53.58 8.46863H41.94V1.70748C41.94 1.1038 41.46 0.620864 40.86 0.620864H6.42C5.94 0.620864 5.34 1.1038 5.34 1.70748V5.9332H2.34C1.74 5.9332 1.26 6.41614 1.26 7.01981C1.26 7.62349 1.74 8.10643 2.34 8.10643H13.02C13.62 8.10643 14.1 7.62349 14.1 7.01981C14.1 6.41614 13.5 5.9332 12.9 5.9332H7.5V2.79409H39.66V22.4739H7.5V18.8518H10.86C11.46 18.8518 11.94 18.3689 11.94 17.7652C11.94 17.1615 11.46 16.6786 10.86 16.6786H4.26C3.66 16.6786 3.18 17.1615 3.18 17.7652C3.18 18.3689 3.66 18.8518 4.26 18.8518H5.34V22.4739H1.98C1.38 22.4739 0.900003 22.9568 0.900003 23.5605V39.0146C0.900003 39.6182 1.38 40.1012 1.98 40.1012H6.06V40.2219C6.66 43.7232 9.66 46.3794 13.26 46.3794C16.86 46.3794 19.86 43.844 20.46 40.2219V40.1012H40.86ZM53.94 44.2062C51.18 44.2062 48.9 41.9122 48.9 39.1353C48.9 36.3584 51.18 34.0644 53.94 34.0644C56.7 34.0644 58.98 36.3584 58.98 39.1353C58.98 41.9122 56.7 44.2062 53.94 44.2062ZM53.94 34.1852C51.3 34.1852 49.14 36.3584 49.14 39.0146V39.1353C49.14 41.7915 51.3 43.9647 53.94 43.9647C56.58 43.9647 58.74 41.7915 58.74 39.1353V39.0146C58.74 36.3584 56.58 34.1852 53.94 34.1852ZM13.14 44.2062C10.38 44.2062 8.1 41.9122 8.1 39.1353C8.1 36.3584 10.38 34.0644 13.14 34.0644C15.9 34.0644 18.18 36.3584 18.18 39.1353C18.3 41.9122 16.02 44.2062 13.14 44.2062ZM13.14 34.1852C10.5 34.1852 8.34 36.3584 8.34 39.0146C8.34 41.6707 10.5 43.844 13.14 43.844C15.78 43.844 17.94 41.6707 17.94 39.0146V38.8938C18.06 36.3584 15.9 34.1852 13.14 34.1852ZM65.22 37.928H61.02V37.8072C60.42 34.3059 57.42 31.6497 53.82 31.6497C50.22 31.6497 47.22 34.1852 46.62 37.8072V37.928H41.82V24.6471H59.1L65.22 26.6996V37.928ZM61.26 37.6865H64.98V26.9411L59.1 24.8886H42.18V37.6865H46.5C47.1 34.0644 50.22 31.529 53.82 31.529C57.42 31.529 60.66 34.1852 61.26 37.6865ZM39.78 37.928H20.34V37.8072C19.74 34.3059 16.74 31.6497 13.14 31.6497C9.54 31.6497 6.66 34.3059 6.06 37.928V38.0487H3.06V24.6471H39.78V37.928ZM20.58 37.6865H39.54V24.8886H3.3V37.6865H5.82C6.42 34.0644 9.54 31.529 13.14 31.529C16.86 31.529 19.86 34.1852 20.58 37.6865ZM57.66 22.4739H41.94V10.6419H52.86V10.7626L57.66 22.4739ZM42.18 22.2324H57.3L52.62 10.8833H42.18V22.2324Z" fill="#B1B101"/>
</svg>
