<svg width="20" height="22" viewBox="0 0 20 22" fill="none" xmlns="http://www.w3.org/2000/svg">
<path fill-rule="evenodd" clip-rule="evenodd" d="M4.6875 5.375C4.6875 4.67735 4.82491 3.98654 5.09189 3.34199C5.35887 2.69745 5.75018 2.11181 6.2435 1.6185C6.73681 1.12518 7.32245 0.733868 7.967 0.46689C8.61154 0.199912 9.30235 0.0625 10 0.0625C10.6976 0.0625 11.3885 0.199912 12.033 0.46689C12.6776 0.733868 13.2632 1.12518 13.7565 1.6185C14.2498 2.11181 14.6411 2.69745 14.9081 3.34199C15.1751 3.98654 15.3125 4.67735 15.3125 5.375C15.3125 6.78396 14.7528 8.13522 13.7565 9.13151C12.7602 10.1278 11.409 10.6875 10 10.6875C8.59104 10.6875 7.23978 10.1278 6.2435 9.13151C5.24721 8.13522 4.6875 6.78396 4.6875 5.375ZM10 1.9375C9.08832 1.9375 8.21398 2.29966 7.56932 2.94432C6.92466 3.58898 6.5625 4.46332 6.5625 5.375C6.5625 6.28668 6.92466 7.16102 7.56932 7.80568C8.21398 8.45034 9.08832 8.8125 10 8.8125C10.9117 8.8125 11.786 8.45034 12.4307 7.80568C13.0753 7.16102 13.4375 6.28668 13.4375 5.375C13.4375 4.46332 13.0753 3.58898 12.4307 2.94432C11.786 2.29966 10.9117 1.9375 10 1.9375ZM5 14.4375C4.25408 14.4375 3.53871 14.7338 3.01126 15.2613C2.48382 15.7887 2.1875 16.5041 2.1875 17.25V18.735C2.1875 18.7575 2.20375 18.7775 2.22625 18.7813C7.375 19.6213 12.6263 19.6213 17.7738 18.7813C17.7844 18.7788 17.7939 18.773 17.8009 18.7646C17.8079 18.7563 17.812 18.7459 17.8125 18.735V17.25C17.8125 16.5041 17.5162 15.7887 16.9887 15.2613C16.4613 14.7338 15.7459 14.4375 15 14.4375H14.575C14.5416 14.4381 14.5084 14.4431 14.4763 14.4525L13.395 14.8063C11.189 15.5266 8.81102 15.5266 6.605 14.8063L5.5225 14.4525C5.49121 14.4433 5.45885 14.4383 5.42625 14.4375H5ZM0.3125 17.25C0.3125 16.0068 0.80636 14.8145 1.68544 13.9354C2.56451 13.0564 3.7568 12.5625 5 12.5625H5.425C5.65833 12.5633 5.885 12.5992 6.105 12.67L7.1875 13.0238C9.01504 13.6204 10.985 13.6204 12.8125 13.0238L13.895 12.67C14.1138 12.5988 14.3438 12.5625 14.5738 12.5625H15C16.2432 12.5625 17.4355 13.0564 18.3146 13.9354C19.1936 14.8145 19.6875 16.0068 19.6875 17.25V18.735C19.6875 19.6775 19.005 20.48 18.075 20.6313C12.7271 21.5042 7.27295 21.5042 1.925 20.6313C1.47523 20.5573 1.06631 20.3261 0.771027 19.9788C0.475745 19.6316 0.313261 19.1908 0.3125 18.735V17.25Z" fill="#064B24"/>
</svg>
