<svg width="28" height="29" viewBox="0 0 28 29" fill="none" xmlns="http://www.w3.org/2000/svg">
<path d="M6.03767 14.4152C6.03767 15.9229 6.4615 17.3941 7.26072 18.6596L7.44841 18.9623L6.64314 21.9049L9.66443 21.1117L9.95505 21.2873C11.1781 22.0139 12.5828 22.4014 14.0177 22.4014H14.0238C18.4195 22.4014 22.0947 18.823 22.0947 14.4213C22.0947 12.29 21.1744 10.2859 19.6668 8.77832C18.1531 7.26465 16.1551 6.43516 14.0238 6.43516C9.62205 6.43516 6.04373 10.0135 6.03767 14.4152ZM17.0996 18.9805C16.3367 19.0955 15.7433 19.035 14.2236 18.3811C11.9955 17.4184 10.4818 15.2629 10.173 14.827C10.1488 14.7906 10.1306 14.7725 10.1246 14.7604C10.0035 14.6029 9.14373 13.4586 9.14373 12.2779C9.14373 11.1639 9.68865 10.5887 9.94294 10.3223C9.96111 10.3041 9.97322 10.292 9.98533 10.2738C10.2033 10.0316 10.4636 9.97109 10.6271 9.97109C10.7845 9.97109 10.948 9.97109 11.0873 9.97715C11.1054 9.97715 11.1176 9.97715 11.1357 9.97715C11.275 9.97715 11.4506 9.97715 11.6261 10.3889C11.6988 10.5645 11.8078 10.8309 11.9228 11.1033C12.1226 11.5877 12.3285 12.0902 12.3648 12.1689C12.4254 12.29 12.4677 12.4293 12.383 12.5867C12.1771 12.9984 11.9652 13.2164 11.8199 13.3738C11.6322 13.5676 11.5474 13.6584 11.6806 13.8945C12.607 15.4869 13.5334 16.0379 14.9441 16.7463C15.1863 16.8674 15.3256 16.8492 15.4648 16.6857C15.6041 16.5283 16.0642 15.9834 16.2217 15.7473C16.3791 15.5051 16.5426 15.5475 16.7605 15.6262C16.9785 15.7049 18.1592 16.2861 18.4013 16.4072C18.4498 16.4314 18.4922 16.4496 18.5285 16.4678C18.698 16.5525 18.8131 16.607 18.8615 16.6857C18.916 16.8008 18.916 17.2852 18.7162 17.8422C18.5164 18.4053 17.5597 18.9139 17.0996 18.9805ZM27.5863 4.8125C27.5863 2.6752 25.8486 0.9375 23.7113 0.9375H4.3363C2.199 0.9375 0.461304 2.6752 0.461304 4.8125V24.1875C0.461304 26.3248 2.199 28.0625 4.3363 28.0625H23.7113C25.8486 28.0625 27.5863 26.3248 27.5863 24.1875V4.8125ZM9.4283 22.8494L4.3363 24.1875L5.69861 19.2105C4.85701 17.7574 4.41501 16.1045 4.41501 14.4092C4.42107 9.11738 8.72595 4.8125 14.0177 4.8125C16.5849 4.8125 18.9947 5.81152 20.8111 7.62793C22.6215 9.44434 23.7113 11.8541 23.7113 14.4213C23.7113 19.7131 19.3095 24.018 14.0177 24.018C12.4072 24.018 10.8269 23.6123 9.4283 22.8494Z" fill="#B1B101"/>
</svg>
