<svg width="20" height="18" viewBox="0 0 20 18" fill="none" xmlns="http://www.w3.org/2000/svg">
<path d="M19.1667 6.1235C19.1698 7.53402 18.6264 8.89091 17.6505 9.90933C15.4129 12.2294 13.2422 14.6485 10.9222 16.8833C10.3896 17.3875 9.54533 17.3692 9.03658 16.8421L2.34949 9.91025C0.328245 7.81475 0.328245 4.43225 2.34949 2.33767C2.82721 1.83625 3.40177 1.43706 4.03835 1.16431C4.67493 0.891556 5.36027 0.750917 6.05283 0.750917C6.74538 0.750917 7.43072 0.891556 8.0673 1.16431C8.70388 1.43706 9.27845 1.83625 9.75616 2.33767L9.99999 2.58883L10.2429 2.33767C10.7212 1.83693 11.2959 1.43814 11.9323 1.16529C12.5687 0.892441 13.2538 0.751178 13.9462 0.75C15.3396 0.75 16.6715 1.322 17.6496 2.33767C18.6258 3.35594 19.1696 4.71285 19.1667 6.1235Z" stroke="#064B24" stroke-width="1.5" stroke-linejoin="round"/>
</svg>
