<svg width="35" height="23" viewBox="0 0 35 23" fill="none" xmlns="http://www.w3.org/2000/svg">
<path d="M33.7667 3.89332C33.3762 2.52957 32.2257 1.45553 30.765 1.09104C28.1172 0.428711 17.5 0.428711 17.5 0.428711C17.5 0.428711 6.88284 0.428711 4.23502 1.09104C2.77424 1.45559 1.62375 2.52957 1.23327 3.89332C0.523804 6.36519 0.523804 11.5225 0.523804 11.5225C0.523804 11.5225 0.523804 16.6798 1.23327 19.1517C1.62375 20.5155 2.77424 21.5448 4.23502 21.9092C6.88284 22.5716 17.5 22.5716 17.5 22.5716C17.5 22.5716 28.1171 22.5716 30.765 21.9092C32.2257 21.5448 33.3762 20.5155 33.7667 19.1517C34.4762 16.6798 34.4762 11.5225 34.4762 11.5225C34.4762 11.5225 34.4762 6.36519 33.7667 3.89332ZM14.0276 16.205V6.84005L22.9014 11.5226L14.0276 16.205Z" fill="#B1B101"/>
</svg>
